<?xml version="1.0" encoding="UTF-8" standalone="no"?> <svg xmlns:dc="http://purl.org/dc/elements/1.1/" xmlns:cc="http://creativecommons.org/ns#" xmlns:rdf="http://www.w3.org/1999/02/22-rdf-syntax-ns#" xmlns:svg="http://www.w3.org/2000/svg" xmlns="http://www.w3.org/2000/svg" xmlns:sodipodi="http://sodipodi.sourceforge.net/DTD/sodipodi-0.dtd" xmlns:inkscape="http://www.inkscape.org/namespaces/inkscape" id="svg196" height="517.97656" width="500" version="1.1" sodipodi:docname="Logo-yellow.svg" inkscape:version="0.92.2 5c3e80d, 2017-08-06"><metadata id="metadata202"></metadata><defs id="defs200"></defs><g style="display:inline" id="layer5" transform="matrix(4.6508228,0,0,4.6508228,-793.87202,-983.20679)"><g id="g492"><path id="path394" style="fill:#ffcb00;fill-rule:evenodd" d="m 182.51472,261.29212 c 4.7587,-15.2142 17.6331,-26.8994 33.6194,-30.1064 0.3174,-1.4054 0.9521,-3.4575 2.2032,-5.5891 -19.8792,2.5749 -35.9262,17.7971 -40.2821,37.5813 1.3128,-0.5566 2.9631,-1.2557 4.4595,-1.8858 z" inkscape:connector-curvature="0"></path><path id="path396" style="fill:#ffcb00;fill-rule:evenodd" d="m 267.73822,286.66062 c -5.3939,18.299 -22.4746,31.6698 -42.7143,31.6698 -14.358,0 -27.1217,-6.7324 -35.2562,-17.1757 -0.594,0.3506 -1.1895,0.6829 -1.8075,0.9612 -0.6389,0.288 -1.2648,0.5473 -1.8559,0.7783 8.6375,12.0586 22.5398,19.8838 38.2218,19.8838 21.9235,0 40.3701,-15.2915 45.8112,-36.0667 -0.7167,-0.023 -1.5794,-0.0448 -2.3991,-0.0507 z" inkscape:connector-curvature="0"></path><path id="path398" style="fill:#ffcb00;fill-rule:evenodd" d="m 268.78012,256.94252 c -1.3479,-3.7141 -3.1171,-7.2165 -5.2587,-10.4388 l -1.7036,3.0668 c 1.6591,2.4096 3.0805,4.9917 4.2361,7.7116 0.782,-0.1341 1.7884,-0.2806 2.7262,-0.3396 z" inkscape:connector-curvature="0"></path><path id="path400" style="fill:#ffcb00;fill-rule:evenodd" d="m 254.37472,214.72862 c 0,0 -0.5921,6.3061 4.0799,8.2414 0,0 1.0276,0.2734 2.0516,-0.3724 0.9024,-0.5693 1.6172,-2.5026 0.5323,-3.4884 0,0 -5.5833,-0.4712 -6.6638,-4.3806 z" inkscape:connector-curvature="0"></path><path id="path402" style="fill:#ffcb00;fill-rule:evenodd" d="m 255.08742,211.73632 c 0,0 -2.0083,0.4709 -3.9063,1.1577 -0.5717,0.2067 -0.7163,-0.1159 -1.4791,-0.0634 0,0 -4.9241,0.9243 -5.7539,3.8528 -0.1356,0.478 -0.159,2.1397 -0.1386,2.6854 0.0156,0.4166 0.1122,0.8444 0.4044,1.0566 0.232,0.1685 0.5874,0.2014 1.1232,-0.0141 2.0958,-0.8434 0.588,-2.6085 1.2554,-3.0091 0,0 0.8706,2.5455 0.1098,3.2362 0,0 2.0109,-0.0392 2.0962,-2.2255 0,0 3.7824,10.8935 0.7742,14.8244 0,0 -1.5215,1.5081 -2.3856,1.6946 0,0 -1.7374,-13.6185 -14.8209,-12.7642 0,0 -13.65,0.4239 -12.7943,14.9799 0,0 5.2867,-10.3067 13.9735,-4.2177 0,0 -16.379,-0.3847 -8.9792,15.4002 0,0 -0.7499,-9.2779 8.4127,-8.0932 0,0 -9.9903,4.3977 -3.7625,17.1266 0,0 0.2037,-11.606 10.8921,-8.8884 0.8293,0.2109 2.7199,0.9306 3.9059,2.0955 1.7281,1.6971 3.185,5.7902 -0.4862,12.5538 0,0 -1.7947,3.9116 -1.2652,3.7645 0,0 20.8415,-19.1987 19.3701,-30.2497 0,0 -1.0453,-5.0355 -4.1165,-9.3203 -3.0713,-4.2845 -6.5286,-11.9394 -2.4292,-15.5826 z" inkscape:connector-curvature="0"></path><path id="path404" style="fill:#ffcb00;fill-rule:evenodd" d="m 227.01782,221.16862 -2.3749,-7.8524 c 0,0 0.2215,-1.5286 1.6471,-1.8385 1.2807,-0.2782 2.0683,0.3064 2.26,0.6512 l 1.3819,8.3837 c 0,0 -0.7579,-0.1604 -1.5886,0.0581 -0.6804,0.1792 -1.3255,0.5979 -1.3255,0.5979 z" inkscape:connector-curvature="0"></path><path id="path406" style="fill:#ffcb00;fill-rule:evenodd" d="m 270.13732,262.94132 c -0.8043,0 -1.4566,0.6522 -1.4566,1.4568 0,0.8045 0.6523,1.4566 1.4566,1.4566 0.8045,0 1.457,-0.6521 1.457,-1.4566 0,-0.8046 -0.6525,-1.4568 -1.457,-1.4568 z" inkscape:connector-curvature="0"></path><path id="path408" style="fill:#ffcb00;fill-rule:evenodd" d="m 266.13032,263.23692 c -0.8043,0 -1.4565,0.6521 -1.4565,1.4567 0,0.8045 0.6522,1.4568 1.4565,1.4568 0.8046,0 1.4571,-0.6523 1.4571,-1.4568 0,-0.8046 -0.6525,-1.4567 -1.4571,-1.4567 z" inkscape:connector-curvature="0"></path><path id="path410" style="fill:#ffcb00;fill-rule:evenodd" d="m 216.48912,258.68802 c -0.054,-0.2776 -0.1073,-0.5784 -0.1587,-0.9009 -0.0519,-0.323 -0.0768,-0.6512 -0.0751,-0.9841 0.002,-0.3332 0.0331,-0.6554 0.0948,-0.967 0.0611,-0.3116 0.1696,-0.5823 0.3246,-0.8122 0.2296,0.1551 0.409,0.3918 0.5378,0.7107 0.1286,0.3191 0.1446,0.6875 0.0487,1.1058 -0.0876,0.3499 -0.2,0.6826 -0.3384,0.9975 -0.1385,0.3159 -0.2829,0.5993 -0.4337,0.8502 z m -11.746,-3.5722 -0.1184,-0.6092 c -0.1798,-0.808 -0.308,-1.6376 -0.3844,-2.4882 -0.0772,-0.8505 -0.077,-1.7044 4e-4,-2.5631 0.1314,-0.6912 0.3008,-1.1904 0.5072,-1.4967 l 0.0766,0.0515 c 0.2759,0.2792 0.4634,0.6703 0.5612,1.1724 0.0978,0.5027 0.1269,1.0794 0.0871,1.7306 -0.0396,0.6516 -0.1276,1.3398 -0.2637,2.065 -0.1365,0.7258 -0.2918,1.4383 -0.466,2.1377 z m -9.9196,-1.1146 c -0.5746,0.4113 -1.1595,0.7971 -1.755,1.1572 -0.4931,0.3179 -0.9978,0.5768 -1.5132,0.7772 -0.516,0.2002 -0.9671,0.1606 -1.3546,-0.1191 -0.2855,-0.2108 -0.4043,-0.4539 -0.3582,-0.7294 0.0463,-0.2751 0.1862,-0.5518 0.4208,-0.8307 0.234,-0.2786 0.5236,-0.5291 0.8687,-0.7515 0.345,-0.2222 0.676,-0.3757 0.9925,-0.4596 0.3167,-0.0836 0.6555,-0.1385 1.0165,-0.1647 0.3613,-0.0255 0.7358,-0.0375 1.1248,-0.0357 0.3883,0.002 0.7624,0.0128 1.1211,0.0313 0.3585,0.0192 0.6833,0.0336 0.9739,0.0436 -0.4507,0.3098 -0.9628,0.6699 -1.5373,1.0814 z m 26.9025,0.6384 c -0.1837,-0.0306 -0.3235,0.1078 -0.4188,0.4146 -0.0356,0.2732 -0.0928,0.5786 -0.1712,0.9152 -0.0792,0.3372 -0.1638,0.6702 -0.2553,0.9983 -0.0911,0.3291 -0.226,0.6931 -0.4027,1.0937 -0.1773,0.4007 -0.3826,0.8013 -0.615,1.2015 -0.233,0.4005 -0.5059,0.7642 -0.8194,1.0915 -0.3138,0.3273 -0.6417,0.58 -0.9843,0.7574 -0.3412,-0.0444 -0.6206,-0.2229 -0.8366,-0.5361 -0.2166,-0.3126 -0.3749,-0.6146 -0.476,-0.9058 0.2668,-0.3402 0.514,-0.7494 0.7432,-1.2266 0.2287,-0.4773 0.3981,-0.9482 0.5072,-1.4134 0.127,-0.6017 0.1251,-1.123 -0.005,-1.5635 -0.1305,-0.4405 -0.3356,-0.7837 -0.6162,-1.0284 -0.2808,-0.2451 -0.6069,-0.3814 -0.9785,-0.409 -0.3713,-0.0273 -0.7198,0.0628 -1.0456,0.2705 -0.3257,0.2076 -0.5978,0.5489 -0.8159,1.0239 -0.2009,0.4373 -0.3005,1.0022 -0.3019,1.6913 -0.0234,0.1027 -0.0447,0.2031 -0.0735,0.3124 -0.0894,0.3392 -0.1687,0.6711 -0.2389,0.995 -0.0391,0.1409 -0.1126,0.3608 -0.2213,0.6591 -0.1082,0.2986 -0.2384,0.6291 -0.3897,0.991 -0.1513,0.3625 -0.32,0.7232 -0.5052,1.0805 -0.1858,0.3578 -0.3772,0.656 -0.5749,0.894 -0.2715,-0.3684 -0.5389,-0.8879 -0.8027,-1.5579 -0.2634,-0.6694 -0.5348,-1.3217 -0.8133,-1.9555 -0.2787,-0.6332 -0.5628,-1.1826 -0.8532,-1.6479 -0.2901,-0.4644 -0.5913,-0.7003 -0.903,-0.7061 -0.5089,0.0107 -0.8859,0.0672 -1.132,0.1703 -0.2461,0.1034 -0.434,0.2234 -0.5623,0.3589 -0.2406,0.2466 -0.4593,0.6336 -0.6566,1.1598 -0.1969,0.5267 -0.396,1.1871 -0.5962,1.9801 -0.1223,-0.3974 -0.2409,-0.8354 -0.3557,-1.3122 -0.1151,-0.4767 -0.2395,-1.0018 -0.3728,-1.5748 0.1958,-0.704 0.3733,-1.4427 0.5337,-2.2179 0.1596,-0.7741 0.2894,-1.5316 0.3895,-2.2724 0.0999,-0.7406 0.1517,-1.4444 0.155,-2.1108 0.004,-0.6664 -0.0769,-1.2497 -0.2408,-1.7504 -0.2096,-0.7357 -0.5718,-1.2536 -1.0844,-1.5532 -0.5133,-0.2997 -0.995,-0.2941 -1.4452,0.0152 -0.5103,0.3437 -0.8588,0.8885 -1.0463,1.635 -0.1874,0.7467 -0.269,1.6115 -0.2442,2.5937 0.001,0.054 0.006,0.1108 0.008,0.1652 -0.0477,-0.002 -0.0991,0.002 -0.1554,0.0132 -0.4072,0.1908 -0.8523,0.3551 -1.3355,0.4931 -0.8293,0.0731 -1.6676,0.0971 -2.5153,0.0737 -0.8481,-0.0233 -1.6777,-0.0396 -2.4891,-0.0482 -0.812,-0.008 -1.6129,0.0367 -2.4037,0.1351 -0.7911,0.0988 -1.5458,0.2955 -2.2651,0.5907 -0.4495,0.1988 -0.8775,0.5093 -1.283,0.932 -0.406,0.4233 -0.6871,0.8608 -0.843,1.3124 -0.1564,0.4521 -0.1462,0.8723 0.029,1.2592 0.1751,0.3879 0.6274,0.6324 1.3576,0.7344 0.4352,0.0708 0.9313,-0.003 1.4879,-0.223 0.5563,-0.2192 1.1268,-0.5076 1.7119,-0.8659 0.5847,-0.3578 1.1658,-0.7371 1.7423,-1.138 0.5763,-0.4002 1.1007,-0.7577 1.5723,-1.0715 0.0559,0.7436 0.2062,1.4856 0.45,2.2257 0.2438,0.7404 0.4985,1.4789 0.7639,2.2146 0.265,0.7364 0.4985,1.4788 0.6997,2.2273 0.2008,0.7487 0.2764,1.5052 0.2257,2.2692 -0.0485,1.008 -0.3905,1.757 -1.0275,2.2473 -0.6368,0.4898 -1.388,0.7642 -2.2532,0.8212 -0.8658,0.0577 -1.7533,-0.0857 -2.6635,-0.4303 -0.9104,-0.3437 -1.6415,-0.8506 -2.1932,-1.5201 -0.2339,-0.1761 -0.4308,-0.1879 -0.5893,-0.0355 -0.1589,0.1537 -0.1624,0.3374 -0.009,0.5513 0.8837,0.8931 1.8822,1.5201 2.9954,1.8802 1.113,0.3605 2.215,0.4345 3.3053,0.2222 0.5598,-0.0866 1.0979,-0.2305 1.6139,-0.431 0.5152,-0.2 0.9753,-0.4611 1.3783,-0.7842 0.4032,-0.3223 0.7327,-0.7083 0.9894,-1.1579 0.2565,-0.4492 0.4074,-0.9555 0.4533,-1.5193 0.0468,-0.7858 -0.0377,-1.5623 -0.254,-2.3307 -0.2159,-0.7675 -0.4611,-1.5412 -0.7343,-2.3202 -0.2741,-0.7788 -0.5318,-1.5607 -0.773,-2.346 -0.2417,-0.7851 -0.3541,-1.5896 -0.3367,-2.414 0.5939,-0.0269 1.1901,-0.0985 1.7889,-0.2151 0.5401,-0.1052 1.0759,-0.2857 1.607,-0.5341 0.0554,0.7009 0.1476,1.4367 0.2838,2.2131 0.2011,1.148 0.4444,2.2823 0.7291,3.4029 0.2847,1.1209 0.5888,2.1988 0.9125,3.2341 0.3232,1.0356 0.6154,1.9391 0.8766,2.7089 0.0294,0.1497 0.0607,0.2544 0.0945,0.3142 0.0545,0.1673 0.1905,0.2685 0.4085,0.3033 0.2176,0.0357 0.4482,0.0241 0.6922,-0.0348 0.2435,-0.0581 0.4588,-0.1501 0.6453,-0.2754 0.1866,-0.1247 0.2674,-0.2517 0.2422,-0.3801 l -0.006,-0.032 c -0.1888,-0.7399 -0.2831,-1.4814 -0.2834,-2.225 -4e-4,-0.7431 0.0475,-1.407 0.1449,-1.9918 0.0971,-0.5849 0.2201,-1.0634 0.3696,-1.4369 0.1488,-0.3727 0.2769,-0.5699 0.3842,-0.5907 0.0852,-0.0165 0.2442,0.2023 0.4773,0.6562 0.2324,0.454 0.4804,0.9881 0.7447,1.6026 0.2635,0.6143 0.5372,1.2214 0.8204,1.8206 0.2829,0.5997 0.541,1.0432 0.7746,1.3304 0.1103,0.1119 0.2143,0.2194 0.3126,0.3221 0.0975,0.1033 0.1571,0.1524 0.1784,0.1483 0.077,0.0516 0.1471,0.0711 0.2114,0.0586 0.3373,0.0234 0.6685,-0.0969 0.9952,-0.3599 0.3258,-0.2632 0.6183,-0.5867 0.8763,-0.9695 0.2582,-0.383 0.4825,-0.7707 0.6723,-1.1628 0.19,-0.3916 0.3304,-0.6968 0.4213,-0.9141 0.0975,-0.2522 0.186,-0.5001 0.2697,-0.7462 0.1235,0.4729 0.2751,0.9146 0.4574,1.3204 0.215,0.4796 0.4746,0.8726 0.7791,1.1796 0.3035,0.3071 0.6388,0.4916 1.0061,0.553 0.5033,0.0795 0.9887,0.008 1.4559,-0.2164 0.4665,-0.2242 0.891,-0.523 1.2733,-0.897 0.3819,-0.3743 0.7225,-0.79 1.0219,-1.2474 0.2989,-0.4579 0.5309,-0.891 0.6956,-1.3004 0.251,-0.6481 0.4561,-1.2757 0.6153,-1.8842 0.1589,-0.6075 0.2502,-1.1356 0.2741,-1.5842 -0.0543,-0.2779 -0.1729,-0.4325 -0.3564,-0.4635 z" inkscape:connector-curvature="0"></path><path id="path412" style="fill:#ffcb00;fill-rule:evenodd" d="m 186.29232,290.04692 c -0.3365,0.8205 -1.0245,1.521 -2.0644,2.1027 -1.0402,0.5823 -2.2679,1.0353 -3.6816,1.3604 -1.1102,0.1439 -2.1935,0.1914 -3.2511,0.1423 -1.0571,-0.048 -1.9881,-0.1912 -2.792,-0.4299 -1.2261,-0.3714 -1.9268,-0.8509 -2.1034,-1.4397 -0.177,-0.5878 0.2615,-1.2327 1.3167,-1.9337 1.4409,-0.9957 3.1155,-1.778 5.024,-2.3489 1.9082,-0.5698 3.805,-1.1051 5.6918,-1.6052 0.6884,0.5573 1.2014,1.1667 1.5404,1.8288 0.3383,0.6629 0.4452,1.4371 0.3196,2.3232 z m 1.6127,-5.2545 c 0.0976,-0.0156 0.2413,-0.0547 0.431,-0.1187 0.1898,-0.0628 0.331,-0.1188 0.4232,-0.1673 0.3962,-0.2292 0.5334,-0.4671 0.4108,-0.7148 -0.1226,-0.247 -0.3735,-0.307 -0.7533,-0.1801 -0.2498,0.1071 -0.5274,0.1926 -0.8333,0.2575 -0.3065,0.0662 -0.5543,0.1305 -0.7438,0.1933 -0.6308,-0.3993 -1.5574,-0.8843 -2.7809,-1.4567 -1.224,-0.5712 -2.4546,-1.1833 -3.6906,-1.8366 -1.2369,-0.6528 -2.3291,-1.3363 -3.2754,-2.0526 -0.947,-0.7155 -1.4719,-1.3979 -1.5755,-2.0482 -0.0712,-0.6548 0.0917,-1.2556 0.4882,-1.8018 0.3958,-0.5457 0.8871,-0.9658 1.4738,-1.2592 0.586,-0.2931 1.1947,-0.4477 1.825,-0.4656 0.6301,-0.0164 1.1255,0.1632 1.4851,0.5388 0.1553,0.1421 0.3094,0.2176 0.4609,0.2264 0.1514,0.009 0.2853,-0.0369 0.4027,-0.139 0.1166,-0.1015 0.1884,-0.2302 0.214,-0.384 0.0252,-0.1541 -0.0103,-0.3232 -0.106,-0.5077 -0.8114,-0.7035 -1.755,-1.0281 -2.8288,-0.9744 -1.0745,0.0544 -2.0382,0.333 -2.8909,0.8347 -0.6408,0.3691 -1.2078,0.842 -1.6981,1.4197 -0.4915,0.5779 -0.8177,1.1969 -0.9793,1.8552 -0.1624,0.659 -0.121,1.3357 0.1231,2.0294 0.2433,0.6945 0.7468,1.3475 1.5108,1.9586 1.4519,1.1683 2.9201,2.1264 4.4055,2.8726 1.4846,0.7468 2.8006,1.4784 3.9478,2.1953 -1.9189,0.5054 -3.8248,1.0421 -5.7163,1.6096 -1.8925,0.5679 -3.6325,1.4107 -5.22,2.5296 -0.7832,0.5245 -1.2903,1.0549 -1.521,1.5915 -0.2317,0.5365 -0.2605,1.0332 -0.0881,1.4884 0.1726,0.4558 0.4876,0.8641 0.9445,1.2239 0.4572,0.3608 0.9848,0.643 1.5843,0.8476 1.2302,0.4039 2.7098,0.5935 4.4384,0.568 1.7282,-0.0248 3.4123,-0.2266 5.0515,-0.6036 1.6394,-0.3773 3.0845,-0.9237 4.3372,-1.6397 1.2519,-0.7155 2.0444,-1.6 2.3765,-2.6522 0.3274,-1.0845 0.3154,-2.0497 -0.0355,-2.8931 -0.3512,-0.8439 -0.883,-1.6253 -1.5975,-2.3448 z" inkscape:connector-curvature="0"></path><path id="path414" style="fill:#ffcb00;fill-rule:evenodd" d="m 206.28432,284.50002 c -0.1323,1.03 -0.4252,2.1459 -0.8796,3.3483 -0.1622,-0.512 -0.3003,-1.0823 -0.4134,-1.7101 -0.1136,-0.6275 -0.1527,-1.2529 -0.1172,-1.8781 0.0347,-0.6243 0.1638,-1.2096 0.3862,-1.7564 0.2222,-0.5462 0.577,-0.9798 1.0647,-1.2995 0.0566,0.0183 0.1078,0.0433 0.1532,0.0764 0.0457,0.0334 0.0987,0.0721 0.1597,0.1159 -0.1038,1.0395 -0.2218,2.0735 -0.3536,3.1035 z m -14.2829,-3.2766 -0.1188,-0.7477 c -0.1849,-0.9927 -0.3064,-2.0098 -0.3643,-3.0497 -0.0581,-1.0403 -0.022,-2.0811 0.1082,-3.1248 0.1895,-0.8375 0.4169,-1.4385 0.6815,-1.8035 l 0.0915,0.0663 c 0.3244,0.3519 0.5365,0.8365 0.6347,1.4529 0.098,0.6166 0.1094,1.3212 0.0336,2.1133 -0.0755,0.7924 -0.212,1.6276 -0.4083,2.5065 -0.1969,0.8787 -0.4162,1.7409 -0.6581,2.5867 z m 33.9106,-8.3016 c -0.0199,-0.2927 -0.1464,-0.454 -0.3795,-0.4846 -0.2339,-0.0297 -0.4347,0.1036 -0.6027,0.3988 -0.6597,1.7736 -1.0576,3.6257 -1.1941,5.5574 -0.1365,1.9326 -0.0999,3.8097 0.1091,5.6329 -0.3804,-0.5308 -0.8133,-1.0949 -1.2978,-1.6904 -0.4848,-0.5951 -0.9684,-1.097 -1.4502,-1.5045 -0.4821,-0.4077 -0.9477,-0.6698 -1.3965,-0.787 -0.4489,-0.1163 -0.8282,0.038 -1.137,0.4635 -0.2911,0.3691 -0.5604,0.9169 -0.8081,1.6419 -0.2477,0.7255 -0.4618,1.4529 -0.6416,2.181 -0.2779,-0.8977 -0.6134,-1.826 -1.0083,-2.786 -0.3948,-0.9596 -0.8304,-1.7507 -1.3062,-2.3751 -0.0996,-0.1185 -0.2935,-0.1954 -0.5816,-0.2301 -0.2883,-0.0348 -0.5765,-0.0293 -0.8648,0.0166 -0.2892,0.0459 -0.5348,0.1523 -0.7364,0.3187 -0.2023,0.1673 -0.2523,0.4032 -0.1495,0.71 0.0691,0.0971 0.1539,0.2041 0.2533,0.323 0.0997,0.1188 0.1858,0.2396 0.2595,0.3621 0.4382,0.6129 0.8111,1.3461 1.1216,2.1963 -0.0849,0.3154 -0.1815,0.6296 -0.2994,0.942 -0.2632,0.7148 -0.5411,1.4176 -0.8346,2.11 -0.2932,0.6927 -0.6927,1.227 -1.1976,1.6033 -0.2964,-0.168 -0.5705,-0.4542 -0.8226,-0.8578 -0.2531,-0.4039 -0.4797,-0.8583 -0.6813,-1.3649 -0.2015,-0.5056 -0.3855,-1.0281 -0.5517,-1.5666 -0.1671,-0.5386 -0.2989,-1.0284 -0.396,-1.4705 0.1101,-0.1518 0.1534,-0.3071 0.1281,-0.4644 -0.0477,-0.127 -0.1661,-0.2827 -0.357,-0.4681 -0.1908,-0.1844 -0.4278,-0.3619 -0.7103,-0.5325 -0.2829,-0.1703 -0.6085,-0.313 -0.9762,-0.4298 -0.3687,-0.1161 -0.7559,-0.1826 -1.1619,-0.1984 -0.3274,-0.0285 -0.6567,0.0171 -0.9871,0.1368 -0.3307,0.12 -0.6523,0.2991 -0.964,0.5366 -0.3119,0.2382 -0.5814,0.5302 -0.8089,0.8752 -0.2275,0.3459 -0.4023,0.7301 -0.523,1.1528 -0.2466,0.8201 -0.3668,1.6258 -0.3617,2.4183 0.003,0.4328 0.0301,0.8418 0.0781,1.2314 -0.1259,0.3033 -0.2691,0.6307 -0.4312,0.9841 -0.2001,0.4356 -0.4206,0.8678 -0.6616,1.296 -0.2413,0.4284 -0.4878,0.7837 -0.7385,1.0657 -0.3154,-0.4604 -0.6196,-1.1051 -0.9128,-1.933 -0.2931,-0.8273 -0.5967,-1.6335 -0.9095,-2.4181 -0.3133,-0.7839 -0.6368,-1.4656 -0.9712,-2.0449 -0.3343,-0.5784 -0.6916,-0.8787 -1.0712,-0.8989 -0.6205,-0.008 -1.0826,0.0448 -1.3871,0.1602 -0.3044,0.1156 -0.5383,0.2537 -0.7007,0.414 -0.304,0.2904 -0.5865,0.7529 -0.8491,1.3865 -0.2622,0.6337 -0.5329,1.4301 -0.8102,2.3888 -0.1321,-0.4897 -0.2582,-1.0286 -0.3783,-1.6147 -0.1204,-0.5865 -0.25,-1.2316 -0.3886,-1.936 0.2684,-0.8499 0.5161,-1.743 0.7437,-2.681 0.2275,-0.9374 0.4175,-1.8554 0.5707,-2.7545 0.1529,-0.8981 0.2456,-1.7542 0.2776,-2.5665 0.0324,-0.8122 -0.041,-1.5269 -0.2199,-2.1442 -0.225,-0.9055 -0.6444,-1.5523 -1.2571,-1.9388 -0.6131,-0.387 -1.2005,-0.4006 -1.7623,-0.0426 -0.6367,0.3976 -1.0844,1.0474 -1.3444,1.9492 -0.26,0.9028 -0.3956,1.9537 -0.4067,3.1521 -0.0109,1.1994 0.0821,2.5033 0.2793,3.9108 0.1972,1.4082 0.4458,2.8015 0.7459,4.1794 0.3,1.3784 0.6254,2.7052 0.9767,3.9811 0.3506,1.2761 0.669,2.3896 0.9549,3.3389 0.0292,0.184 0.0628,0.3129 0.1017,0.3877 0.0593,0.206 0.2213,0.3348 0.4855,0.3867 0.2639,0.0526 0.5457,0.0482 0.8456,-0.0134 0.2994,-0.061 0.5653,-0.1636 0.7982,-0.3087 0.2324,-0.1444 0.3365,-0.2956 0.3114,-0.453 l -0.006,-0.0394 c -0.1987,-0.91 -0.2826,-1.8181 -0.2518,-2.7246 0.0306,-0.906 0.117,-1.7136 0.2602,-2.4226 0.1428,-0.7086 0.313,-1.2868 0.5109,-1.7356 0.1972,-0.4484 0.3618,-0.6831 0.4931,-0.7042 0.105,-0.0167 0.2895,0.2567 0.5544,0.8199 0.2643,0.5633 0.5443,1.225 0.8404,1.9848 0.2956,0.7601 0.6038,1.512 0.9237,2.2545 0.3202,0.7431 0.6161,1.2943 0.8888,1.6545 0.1298,0.1406 0.2522,0.2764 0.3671,0.4055 0.1147,0.13 0.1854,0.1926 0.2118,0.1883 0.0913,0.0661 0.1763,0.093 0.2548,0.0807 0.4104,0.0424 0.8194,-0.0899 1.2284,-0.3972 0.4083,-0.3073 0.7784,-0.6889 1.1092,-1.1451 0.3312,-0.4563 0.6206,-0.9193 0.8686,-1.3895 0.0862,-0.1633 0.1619,-0.3095 0.2328,-0.4476 0.1308,0.3527 0.2853,0.6696 0.4707,0.9413 0.298,0.4367 0.6261,0.681 0.9841,0.731 0.4709,0.0865 0.9169,-0.0714 1.337,-0.4748 0.4202,-0.4032 0.7779,-0.8567 1.0745,-1.3616 0.3629,-0.5958 0.669,-1.2902 0.9197,-2.0836 0.4994,0.9435 1.0566,1.6955 1.6707,2.2567 0.6141,0.5615 1.2618,0.7879 1.9444,0.6792 0.6034,-0.0959 1.1081,-0.4317 1.5145,-1.0078 0.4058,-0.5753 0.7867,-1.2684 1.1422,-2.0788 0.1912,-0.4669 0.362,-0.9155 0.5172,-1.35 0.1217,0.3685 0.24,0.7336 0.3497,1.0912 0.2519,0.8215 0.4678,1.547 0.6488,2.1768 0.1814,0.631 0.3631,1.012 0.5457,1.1445 0.2817,0.2509 0.5399,0.3107 0.7749,0.1791 0.2342,-0.1311 0.3881,-0.3906 0.4613,-0.7795 0.099,-0.3921 0.2153,-0.969 0.3502,-1.7305 0.1341,-0.761 0.2818,-1.5245 0.4426,-2.2901 0.1608,-0.7651 0.3294,-1.4381 0.5063,-2.0181 0.1763,-0.579 0.3566,-0.8838 0.5405,-0.9132 0.1878,-0.003 0.3998,0.1453 0.6359,0.4438 0.2352,0.2994 0.4971,0.6745 0.7844,1.1263 0.2871,0.4524 0.5872,0.9427 0.9,1.4713 0.3126,0.529 0.641,1.0277 0.9848,1.4978 0.3437,0.4699 0.6991,0.8843 1.0657,1.2427 0.3664,0.3592 0.7436,0.575 1.132,0.6472 0.1314,-0.0208 0.2484,-0.0456 0.351,-0.0757 0.1027,-0.0297 0.1856,-0.1034 0.2475,-0.2213 0.1284,-0.2084 0.1669,-0.5573 0.1159,-1.0474 -0.0512,-0.4894 -0.1365,-1.0678 -0.2561,-1.7352 -0.1198,-0.6669 -0.2377,-1.4079 -0.3538,-2.2238 -0.1163,-0.8149 -0.1759,-1.6531 -0.178,-2.5141 0.0218,-1.214 0.143,-2.4373 0.3645,-3.6698 0.2206,-1.2324 0.5117,-2.3214 0.8724,-3.2668 z" inkscape:connector-curvature="0"></path><path id="path416" style="fill:#ffcb00;fill-rule:evenodd" d="m 269.14272,274.49802 c -0.1325,1.03 -0.4252,2.1459 -0.8794,3.3483 -0.1624,-0.5121 -0.3003,-1.0823 -0.4136,-1.7101 -0.1138,-0.6275 -0.1527,-1.2529 -0.117,-1.8779 0.0348,-0.6245 0.1638,-1.2098 0.3863,-1.7564 0.2222,-0.5462 0.577,-0.98 1.0645,-1.2997 0.0566,0.0183 0.1075,0.0435 0.1534,0.0764 0.0459,0.0334 0.0982,0.0723 0.1597,0.1159 -0.1038,1.0397 -0.222,2.0734 -0.3539,3.1035 z m -39.5175,6.2882 c -0.1324,1.0297 -0.4253,2.1457 -0.8797,3.3481 -0.1622,-0.5121 -0.3,-1.0824 -0.4133,-1.7099 -0.1136,-0.6277 -0.1527,-1.2531 -0.1173,-1.8781 0.035,-0.6245 0.1638,-1.2095 0.3863,-1.7566 0.2224,-0.546 0.5772,-0.9795 1.0645,-1.2993 0.0568,0.018 0.1077,0.0433 0.1536,0.0762 0.0459,0.0334 0.0985,0.0723 0.1597,0.1161 -0.1038,1.0393 -0.2218,2.0732 -0.3538,3.1035 z m 48.1628,-9.7826 c -0.2226,-0.0452 -0.3983,0.1177 -0.5274,0.4873 -0.0551,0.3316 -0.1309,0.7007 -0.2277,1.106 -0.0969,0.4055 -0.2213,0.8087 -0.3724,1.2093 -0.2635,0.7149 -0.5413,1.418 -0.8349,2.1101 -0.2931,0.6926 -0.6924,1.2272 -1.1978,1.6033 -0.2956,-0.168 -0.5703,-0.4542 -0.8224,-0.8579 -0.2528,-0.4036 -0.4796,-0.8583 -0.6812,-1.3648 -0.2016,-0.5054 -0.3856,-1.0279 -0.552,-1.5669 -0.1664,-0.5383 -0.2984,-1.0279 -0.3953,-1.4703 0.1098,-0.152 0.1529,-0.307 0.1279,-0.4643 -0.0475,-0.127 -0.1664,-0.2828 -0.3571,-0.4679 -0.1907,-0.1847 -0.428,-0.3619 -0.7102,-0.5327 -0.2829,-0.1701 -0.6085,-0.3131 -0.9765,-0.4299 -0.3684,-0.116 -0.7556,-0.1826 -1.1618,-0.1983 -0.3272,-0.0285 -0.6565,0.0174 -0.9871,0.1367 -0.3307,0.12 -0.6524,0.2991 -0.9638,0.5367 -0.3121,0.2382 -0.5816,0.5302 -0.8091,0.8751 -0.2274,0.346 -0.4024,0.7303 -0.5226,1.1531 -0.1573,0.5228 -0.2572,1.0391 -0.3121,1.5505 -0.001,0.005 -0.002,0.009 -0.004,0.0132 -0.1235,0.4097 -0.2343,0.8108 -0.3335,1.2031 -0.0535,0.1701 -0.1466,0.4337 -0.2773,0.7909 -0.1319,0.3575 -0.2999,0.7408 -0.5033,1.1493 -0.1504,0.2396 -0.3091,0.4667 -0.477,0.6815 -0.1677,0.215 -0.3461,0.4048 -0.535,0.5693 -0.3647,-0.2648 -0.7084,-0.6877 -1.0293,-1.2689 -0.3211,-0.5809 -0.6233,-1.2123 -0.9067,-1.8941 -0.2834,-0.681 -0.5515,-1.3511 -0.8041,-2.0106 -0.2533,-0.659 -0.5049,-1.1841 -0.755,-1.5751 -0.0915,-0.066 -0.2287,-0.1248 -0.4115,-0.1767 -0.1835,-0.0515 -0.3819,-0.0733 -0.5959,-0.0666 -0.2144,0.007 -0.4309,0.042 -0.6496,0.1034 -0.219,0.0621 -0.3962,0.171 -0.533,0.3269 l -0.126,0.2218 c -0.0445,0.0614 -0.0698,0.1122 -0.0767,0.1534 -0.007,0.0417 -0.0195,0.0909 -0.0368,0.1472 -0.2273,0.6013 -0.387,1.2053 -0.4788,1.8118 -0.0919,0.6066 -0.1703,1.2112 -0.2359,1.8132 -0.0658,0.6025 -0.1251,1.2041 -0.177,1.8038 -0.0529,0.6006 -0.1381,1.2063 -0.256,1.8166 -0.302,-0.5436 -0.5815,-1.1585 -0.8384,-1.8442 -0.257,-0.6855 -0.5101,-1.3447 -0.7584,-1.9778 -0.2489,-0.6328 -0.5157,-1.2093 -0.7999,-1.7293 -0.2846,-0.5198 -0.607,-0.8984 -0.968,-1.1373 -0.0611,-0.044 -0.1068,-0.0772 -0.1369,-0.0994 -0.0306,-0.0215 -0.0762,-0.0547 -0.137,-0.0995 -0.1397,-0.0312 -0.3901,-0.0449 -0.7531,-0.0417 -0.3626,0.004 -0.7042,0.0992 -1.0242,0.2844 -0.1274,0.0473 -0.2567,0.1617 -0.389,0.3443 l -0.1719,0.1889 c -0.2563,0.4178 -0.5145,1.0777 -0.7745,1.9796 -0.0542,-0.3407 -0.1026,-0.6832 -0.1431,-1.0266 -0.0416,-0.3426 -0.0888,-0.6849 -0.1433,-1.0262 -0.025,-0.1576 -0.1675,-0.276 -0.4264,-0.3562 -0.2586,-0.08 -0.5369,-0.1091 -0.8344,-0.0892 -0.2982,0.0211 -0.5679,0.0843 -0.8108,0.1897 -0.2431,0.1062 -0.3614,0.2663 -0.3545,0.4799 l 0.0251,0.1579 c 0.1515,0.7827 0.2785,1.5365 0.3797,2.2599 0.002,0.0202 0.006,0.0402 0.008,0.0598 -0.0534,0.2537 -0.1231,0.5267 -0.2109,0.8201 -0.1238,0.4099 -0.2482,0.8129 -0.3731,1.2094 -0.0716,0.227 -0.1722,0.5255 -0.3013,0.8956 -0.1295,0.3702 -0.2754,0.764 -0.4377,1.1791 -0.1626,0.4165 -0.3482,0.816 -0.5561,1.1985 -0.2083,0.3831 -0.4421,0.6897 -0.7011,0.9186 -0.317,-0.2987 -0.5843,-0.7545 -0.8027,-1.3653 -0.2181,-0.6111 -0.3993,-1.2411 -0.5432,-1.8913 -0.1434,-0.649 -0.2593,-1.2502 -0.3469,-1.801 -0.0876,-0.5513 -0.1596,-0.9162 -0.2145,-1.096 -0.1291,-0.3022 -0.3101,-0.5088 -0.5427,-0.6199 -0.2331,-0.1105 -0.5022,-0.1956 -0.8074,-0.2549 -0.3059,-0.0584 -0.6435,-0.1126 -1.0145,-0.1612 -0.371,-0.0482 -0.757,-0.1485 -1.1579,-0.3003 -0.2609,-0.1201 -0.5895,-0.3231 -0.9846,-0.6099 -0.2187,-0.0191 -0.3605,0.0167 -0.4265,0.1082 -0.3024,0.1288 -0.3351,0.3497 -0.0967,0.6608 0.0418,0.2628 0.0762,0.6943 0.1052,1.2949 0.0126,0.269 -0.0146,0.6031 -0.0766,0.9948 -0.007,0.0169 -0.0135,0.0319 -0.0196,0.0495 -0.0551,0.3319 -0.1309,0.701 -0.2278,1.1061 -0.0968,0.4058 -0.2212,0.8087 -0.3723,1.2091 -0.2635,0.7151 -0.5413,1.4179 -0.8349,2.1105 -0.2931,0.6924 -0.6924,1.227 -1.1977,1.6033 -0.2958,-0.168 -0.5703,-0.4541 -0.8227,-0.8578 -0.2525,-0.4041 -0.4794,-0.8585 -0.681,-1.3648 -0.2016,-0.5059 -0.3856,-1.0285 -0.5519,-1.567 -0.1667,-0.5385 -0.2985,-1.0281 -0.3959,-1.4704 0.1103,-0.1521 0.1535,-0.3071 0.1284,-0.4642 -0.0475,-0.1272 -0.1663,-0.2829 -0.3571,-0.4681 -0.1907,-0.1847 -0.4279,-0.3619 -0.7104,-0.5327 -0.2827,-0.1701 -0.6085,-0.3131 -0.9762,-0.4299 -0.3685,-0.1158 -0.7555,-0.1823 -1.1617,-0.1985 -0.3274,-0.0285 -0.6567,0.0176 -0.9873,0.1369 -0.3307,0.1202 -0.6524,0.2994 -0.9638,0.5369 -0.3121,0.2382 -0.5816,0.5302 -0.8089,0.8752 -0.2278,0.346 -0.4025,0.7297 -0.523,1.1526 -0.2468,0.8203 -0.3668,1.626 -0.362,2.4184 0.005,0.7933 0.086,1.5139 0.2431,2.1609 0.1566,0.6481 0.384,1.1901 0.6826,1.6271 0.2976,0.4366 0.6261,0.6809 0.9842,0.7311 0.4708,0.0864 0.9167,-0.0719 1.3365,-0.475 0.4204,-0.403 0.7784,-0.8567 1.0752,-1.3616 0.3622,-0.5958 0.6688,-1.2903 0.9198,-2.0834 0.4991,0.9433 1.0561,1.695 1.6704,2.2565 0.6141,0.5617 1.2615,0.7879 1.9442,0.6791 0.6034,-0.0959 1.108,-0.4316 1.5145,-1.0077 0.406,-0.5754 0.7869,-1.2684 1.1427,-2.0785 0.3287,-0.8053 0.6047,-1.5625 0.8288,-2.2707 0.1759,-0.5568 0.2952,-1.0613 0.3624,-1.518 0.1863,-0.5235 0.3453,-1.1776 0.4755,-1.9652 l 0.2553,0.0804 c 0.3219,0.1645 0.5694,0.3267 0.7432,0.4873 0.1731,0.1608 0.2938,0.4512 0.3605,0.8708 0.0306,0.5336 0.1182,1.2119 0.2638,2.0366 0.1441,0.8245 0.3487,1.6464 0.614,2.4648 0.3163,0.9726 0.7515,1.5954 1.3065,1.8707 0.5547,0.2748 1.1104,0.301 1.6672,0.0776 0.1791,-0.0551 0.3631,-0.165 0.5526,-0.3302 0.4872,-0.3195 0.8929,-0.8142 1.2166,-1.4848 0.1638,-0.3221 0.3228,-0.6368 0.4755,-0.9436 0.1529,-0.3068 0.2892,-0.5909 0.4092,-0.8521 0.2322,-0.5433 0.4352,-1.0747 0.612,-1.5963 0.0927,0.6264 0.1974,1.2506 0.3195,1.8719 0.1416,0.7181 0.3372,1.4332 0.5881,2.1464 0.1662,0.1891 0.4626,0.2429 0.8873,0.1615 0.4248,-0.0811 0.6873,-0.2371 0.7872,-0.4685 0.0646,-0.2788 0.1052,-0.837 0.1221,-1.6737 0.0166,-0.8365 0.0475,-1.703 0.0938,-2.5981 0.0454,-0.8949 0.117,-1.7136 0.2146,-2.4555 0.0966,-0.7418 0.2813,-1.1884 0.5535,-1.3392 0.1338,0.1673 0.2585,0.3562 0.3727,0.5661 0.1147,0.2107 0.2159,0.4299 0.3065,0.6576 l 0.3032,0.6377 c 0.2148,0.5045 0.4333,1.0347 0.6566,1.5906 0.223,0.5568 0.4494,1.0925 0.6795,1.6072 0.2296,0.5153 0.4732,0.9879 0.7301,1.4172 0.2565,0.4305 0.5543,0.7795 0.8931,1.0488 0.1911,0.1851 0.5021,0.2364 0.9326,0.1543 0.431,-0.082 0.7482,-0.3276 0.9524,-0.7369 0.1995,-0.4354 0.3573,-0.9648 0.4739,-1.5889 0.1156,-0.6238 0.2141,-1.2712 0.2959,-1.9437 0.0809,-0.6722 0.1557,-1.3431 0.2245,-2.0134 0.0681,-0.6697 0.165,-1.2837 0.2918,-1.8424 0.3997,1.4971 0.8523,2.7366 1.3586,3.7187 0.5056,0.9827 1.0422,1.6906 1.6095,2.1251 0.5663,0.4345 1.1401,0.5721 1.7203,0.4122 0.58,-0.1587 1.156,-0.6342 1.7303,-1.4253 0.1765,-0.2433 0.3318,-0.4901 0.4676,-0.7406 0.1346,-0.2498 0.2424,-0.4623 0.3223,-0.6363 0.0577,-0.1351 0.1115,-0.2686 0.1659,-0.4022 0.017,0.0822 0.0315,0.1668 0.051,0.2465 0.1569,0.6481 0.3842,1.1899 0.6826,1.6269 0.2976,0.4368 0.6264,0.681 0.9842,0.7313 0.4708,0.0864 0.9166,-0.0716 1.3366,-0.475 0.4205,-0.4032 0.7783,-0.8567 1.0752,-1.3618 0.3621,-0.5956 0.6687,-1.2901 0.9196,-2.0835 0.4991,0.9436 1.0562,1.6955 1.6705,2.2568 0.6141,0.5617 1.2615,0.7878 1.9441,0.6791 0.6035,-0.0959 1.1082,-0.4316 1.5146,-1.0077 0.4059,-0.5753 0.7869,-1.2684 1.1426,-2.0785 0.3288,-0.8053 0.605,-1.5623 0.8289,-2.2709 0.2236,-0.7079 0.3591,-1.3347 0.4071,-1.8809 -0.054,-0.3409 -0.1928,-0.5343 -0.4155,-0.5795 z" inkscape:connector-curvature="0"></path><path id="path418" style="fill:#ffcb00;fill-rule:evenodd" d="m 238.07952,306.18722 c -0.1476,0.2948 -0.3742,0.5284 -0.6808,0.7012 l -0.0322,0.004 c -0.3905,-0.1232 -0.7216,-0.4194 -0.9929,-0.8886 -0.2718,-0.469 -0.4699,-1.0026 -0.5941,-1.6014 0.3702,0.3019 0.7788,0.5218 1.2258,0.6592 0.4472,0.1381 0.8974,0.1766 1.3506,0.1157 -0.037,0.379 -0.1295,0.7155 -0.2764,1.0095 z m -2.2697,-4.2611 c 0.6662,-0.111 1.2184,0.073 1.6566,0.5522 0.4377,0.4801 0.7274,1.084 0.8694,1.8121 -0.8045,0.0642 -1.4358,-0.1372 -1.8941,-0.6027 -0.4581,-0.4665 -0.6685,-1.053 -0.6319,-1.7616 z m 5.752,-0.7389 c -0.1888,-0.0184 -0.3339,0.089 -0.4345,0.3221 -0.1837,0.5967 -0.4333,1.1129 -0.7477,1.5509 -0.3154,0.4377 -0.7417,0.7809 -1.2798,1.0286 -0.0609,-0.4533 -0.1792,-0.8822 -0.3539,-1.2875 -0.1754,-0.405 -0.3957,-0.7763 -0.6608,-1.1145 -0.2955,-0.4 -0.701,-0.7188 -1.2161,-0.9575 -0.5156,-0.2382 -1.0175,-0.2922 -1.5053,-0.1606 -0.0723,-0.2102 -0.2268,-0.2992 -0.4644,-0.2674 -0.5076,0.31 -0.8661,0.7538 -1.074,1.3307 -0.1181,0.3282 -0.1949,0.6704 -0.2391,1.0241 -0.2737,0.6698 -0.6435,1.3347 -1.1192,1.9934 -0.5098,0.7059 -1.0933,1.3554 -1.7497,1.9488 -0.657,0.5942 -1.3625,1.1058 -2.1175,1.537 -0.7554,0.431 -1.4946,0.7392 -2.2169,0.9237 -0.6564,0.0224 -1.2439,-0.0967 -1.7618,-0.3571 -0.3073,-0.1562 -0.5742,-0.3842 -0.8006,-0.6836 -0.227,-0.2992 -0.4222,-0.6462 -0.5851,-1.0423 -0.1631,-0.3951 -0.3077,-0.8207 -0.4349,-1.2765 -0.1272,-0.4556 -0.2338,-0.919 -0.3186,-1.3913 -0.1027,-0.6013 -0.1449,-1.3263 -0.1273,-2.1752 0.0184,-0.848 0.1138,-1.6908 0.2876,-2.5276 0.1731,-0.836 0.4236,-1.5896 0.7515,-2.2599 0.3274,-0.6704 0.7603,-1.129 1.2985,-1.3777 0.5655,0.1222 1.0889,0.4971 1.5686,1.1248 0.4796,0.628 0.8676,1.3065 1.163,2.0359 0.1328,0.3342 0.2465,0.6486 0.3409,0.9434 0.0943,0.2955 0.1496,0.5846 0.1663,0.8676 0.001,0.1761 0.051,0.3012 0.1488,0.3758 0.0978,0.0751 0.2011,0.105 0.3091,0.0904 0.1077,-0.0144 0.1979,-0.0814 0.2697,-0.2011 0.0714,-0.1194 0.0918,-0.2976 0.0598,-0.5356 -0.0549,-0.4096 -0.1895,-0.8807 -0.4039,-1.4125 -0.2141,-0.5319 -0.4907,-1.1593 -0.8293,-1.8833 -0.4387,-0.6441 -0.9283,-1.1829 -1.4701,-1.6157 -0.5415,-0.4326 -1.0879,-0.6563 -1.6391,-0.6704 -0.508,-0.0193 -0.9716,0.1254 -1.3922,0.4342 -0.4199,0.3091 -0.7855,0.6938 -1.0977,1.1529 -0.3124,0.4595 -0.5698,0.9558 -0.773,1.4883 -0.2033,0.5332 -0.353,1.0147 -0.4489,1.4445 -0.1158,0.609 -0.1914,1.3994 -0.2256,2.3713 -0.0346,0.9716 0.0256,1.9527 0.1807,2.9424 0.1543,0.9903 0.4141,1.9005 0.7783,2.7306 0.364,0.8304 0.8776,1.4209 1.5401,1.7712 0.662,0.3511 1.3831,0.5235 2.1626,0.5177 0.7791,-0.006 1.5685,-0.1448 2.3671,-0.4166 0.7987,-0.272 1.5715,-0.6503 2.3202,-1.1355 0.7478,-0.4847 1.4369,-1.0388 2.0678,-1.6623 0.6301,-0.6229 1.1728,-1.2889 1.6275,-1.9984 0.0586,-0.0918 0.1146,-0.1833 0.1686,-0.275 0.0596,0.3235 0.1437,0.6435 0.2527,0.9602 0.2163,0.6301 0.5137,1.1672 0.892,1.6109 0.378,0.4438 0.8238,0.7358 1.3371,0.8755 0.5135,0.1401 1.0546,0.0396 1.6246,-0.3003 0.4702,-0.2609 0.8105,-0.6308 1.0212,-1.1095 0.2104,-0.4787 0.3334,-0.995 0.3691,-1.5498 0.7322,-0.2739 1.3419,-0.7239 1.83,-1.3495 0.487,-0.6259 0.7936,-1.2881 0.9199,-1.9864 -0.0348,-0.259 -0.1472,-0.3974 -0.3363,-0.4163 z" inkscape:connector-curvature="0"></path></g></g></svg> 